<svg xmlns="http://www.w3.org/2000/svg" viewBox="0 0 1667 283" width="1667" height="283">
<path fill="#126FFA" d="M40.5 281.81C34.22 279.58 28.47 273.59 26.56 267.3C26 265.44 26.56 264.76 30.2 262.93C37.09 259.46 43.59 254.08 45.94 249.89L48.13 246L122.35 246C201.83 246 202.24 245.98 212.14 240.93C217.82 238.03 224.36 231 227.69 224.22L230.5 218.5L231 182.5C231.55 142.93 231.61 142.55 237.91 138.06C244.37 133.47 249.15 132.04 258.23 132.02C266.56 132 266.99 132.11 267.55 134.34C267.87 135.63 267.96 155.55 267.75 178.59C267.32 224.95 267.15 226.4 260.44 240.58C253.22 255.84 241.42 267.81 226.5 275C210.27 282.83 216.15 282.39 125 282.65C69.28 282.8 42.55 282.54 40.5 281.81ZM12.5 246.79C7.86 245.17 3.45 241.46 1.64 237.66C-0.39 233.38 -0.49 224.84 1.45 221.1C3.16 217.79 9.01 212.45 11.93 211.52C13.89 210.9 14 210.13 14 197.11C14 184.11 14.13 183.23 16.25 181.29C20.17 177.71 46.17 158 46.97 158C47.39 158 48.31 160.05 49.02 162.55C50.2 166.79 50.15 167.21 48.23 168.55C47.1 169.34 41.18 173.87 35.09 178.61L24 187.23L24.03 198.86L24.06 210.5L28.52 213.2C33.76 216.38 36.69 220.77 37.59 226.76C39.59 240.09 25.5 251.34 12.5 246.79ZM22.4 238.61C32.95 234.2 30.32 219 19.01 219C13.83 219 11.44 220.25 9.51 223.98C6.4 230 8.38 235.95 14.38 238.56C18.32 240.28 18.39 240.28 22.4 238.61ZM406.08 229.48C385.99 225.84 370.77 211.82 365.26 191.89C363.73 186.33 363.5 180.82 363.5 149.5C363.5 115 363.59 113.2 365.74 106.38C371.39 88.41 385.96 75.66 405.59 71.5C414.85 69.54 552.86 69.26 554.8 71.2C556.58 72.98 556.47 101.37 554.68 102.85C553.76 103.62 531.98 104.03 482.26 104.22L411.17 104.5L406.84 107.53C398.89 113.07 398.93 112.88 399.23 151.58L399.5 185.66L402.19 189.19C403.68 191.13 406.6 193.57 408.69 194.61C412.3 196.4 416.19 196.51 483.46 196.78C538.08 196.99 554.59 197.33 555.19 198.28C556.51 200.35 556.16 228.44 554.8 229.8C552.97 231.63 416.31 231.33 406.08 229.48ZM625.5 230.33C603.33 227.2 586.95 213.01 581.57 192.28C579.37 183.78 579.28 116.31 581.45 108.13C586.02 90.97 596.88 79.56 614.61 73.29L622.5 70.5L686.5 70.5L750.5 70.5L758.33 73.27C776.77 79.79 787.63 91.23 792.08 108.84C794 116.45 794.11 119.26 793.77 153.23C793.43 187.02 793.26 189.88 791.33 195.05C788.04 203.82 785.5 208.23 780.58 213.7C774.67 220.27 767.89 224.57 758.24 227.85L750.5 230.48L689.5 230.61C655.95 230.69 627.15 230.56 625.5 230.33ZM823.07 229.59C822.21 228.55 821.98 219.26 822.2 194.84C822.49 162.89 822.59 161.33 824.66 157.5C827.05 153.06 830.5 149.61 836.48 145.64L840.46 143L898.27 143C954.2 143 956.21 142.93 960.02 140.99C965.66 138.11 967 134.84 967 123.95C967 112.49 965.37 108.53 959.58 105.9C955.76 104.16 951.73 104.04 895.37 104.02L835.24 104L834.22 101.25C827.87 84.1 826.04 75.66 827.92 72.15L829.07 70L892.79 70.03C961.96 70.07 966.36 70.36 977.86 75.52C985.27 78.85 994.03 87.63 997.51 95.25C1000.47 101.71 1001.96 111.34 1001.96 124C1001.96 153.39 993.52 167.18 971 174.59C966.06 176.21 960.4 176.43 915.11 176.76C859.64 177.17 861.69 176.93 858.59 183.46C857.3 186.18 857 190.69 857 207.7C857 222.62 856.66 228.94 855.8 229.8C853.94 231.66 824.63 231.46 823.07 229.59ZM1078.25 229.85C1076.29 227.89 1076.44 72.71 1078.4 71.08C1079.45 70.21 1098.53 69.99 1153.65 70.22L1227.5 70.53L1234.5 72.85C1255.78 79.93 1266 94.94 1266 119.12C1266 128.94 1263.21 137.87 1257.99 144.77L1254.17 149.81L1256.63 152.12C1257.98 153.39 1260.53 157.36 1262.29 160.94C1265.46 167.37 1265.5 167.65 1265.49 181.98C1265.48 194.81 1265.21 197.17 1263.17 202.25C1258.3 214.37 1248.92 222.99 1235.5 227.69L1227.5 230.5L1153.5 230.8C1095.4 231.03 1079.23 230.83 1078.25 229.85ZM1292.03 229.53C1291.12 228.44 1290.91 222.35 1291.21 205.78C1291.6 184.4 1291.73 183.22 1294.34 176.5C1301.93 156.98 1318.45 143.37 1341 138.08C1354.86 134.83 1365.06 134 1391.47 133.99C1405.96 133.99 1418.1 133.54 1420.3 132.93C1422.4 132.35 1425.51 130.62 1427.23 129.09C1429.92 126.68 1430.41 125.48 1430.78 120.31C1431.31 113.1 1429.48 108.86 1424.73 106.27C1421.79 104.66 1416.65 104.46 1367.21 104L1312.92 103.5L1307.46 91.09C1302.03 78.75 1300.91 73.49 1303.2 71.2C1304.11 70.29 1318.62 70 1362.45 70.01C1415.23 70.03 1421.32 70.2 1429.56 71.9C1448.16 75.73 1459.09 84.97 1464.11 101.09C1466.45 108.62 1466.69 126.81 1464.55 134.84C1461.66 145.71 1453.87 155.44 1444 160.48C1433.8 165.69 1430.31 166.2 1398.5 167.05C1357.89 168.15 1346.75 169.95 1336.36 177.1C1329.56 181.77 1324.06 193.15 1327.3 195.83C1328.31 196.67 1347.27 197.06 1397.09 197.24L1465.5 197.5L1465.78 213.42C1465.99 225.49 1465.74 229.55 1464.78 230.16C1464.07 230.6 1425.19 230.98 1378.37 230.98C1304.7 231 1293.08 230.8 1292.03 229.53ZM1535.55 229.89C1513.3 226.65 1497.55 212.13 1492.63 190.3C1491.3 184.44 1491 177.01 1491.02 150.3C1491.04 114.37 1491.72 108.13 1496.73 98.02C1500.55 90.32 1510.94 80.19 1519 76.29C1531.61 70.21 1534.35 70 1602.76 70C1649.52 70 1664.89 70.29 1665.8 71.2C1666.62 72.02 1667 76.98 1667 87C1667 97.02 1666.62 101.98 1665.8 102.8C1664.89 103.71 1649.57 104 1602.98 104L1541.36 104L1535.93 106.75C1531.68 108.9 1530.01 110.47 1528.25 113.96C1526.05 118.32 1526 119.2 1526.02 150.46C1526.04 179.54 1526.22 182.88 1527.91 186.6C1529.66 190.45 1532.89 193.48 1537.5 195.59C1538.6 196.09 1568.07 196.72 1603 197L1666.5 197.5L1666.78 212.87C1666.97 223.35 1666.69 228.67 1665.9 229.62C1664.95 230.77 1654.51 230.98 1603.13 230.88C1569.23 230.81 1538.82 230.37 1535.55 229.89ZM125.77 196.97C113.2 195.01 98.86 186.77 90.7 176.81C85.06 169.92 80.16 158.62 78.81 149.36C74.91 122.6 93.32 95.59 120.37 88.39C127.82 86.4 142.21 86.63 150.23 88.86C167.94 93.76 183.28 109.22 188.58 127.5C191.02 135.88 190.81 149.55 188.12 158C179.66 184.61 153.09 201.22 125.77 196.97ZM750.15 193.76C753.42 191.85 755.45 189.71 756.95 186.61C759 182.38 759.09 180.81 759.12 150.19C759.14 120.33 759.01 117.94 757.18 114.35C756.1 112.23 754.29 109.67 753.17 108.65C748.26 104.22 746.48 104.09 687.5 104.05C651.93 104.03 630.14 104.39 627.78 105.04C623.29 106.29 618.54 110.12 616.21 114.37C614.73 117.08 614.46 121.42 614.17 146.71C613.78 181.58 614.33 185.68 620.13 191.23C622.28 193.27 625.49 195.38 627.27 195.9C629.18 196.46 654.06 196.78 688 196.68L745.5 196.5L750.15 193.76ZM1221.17 195.97C1223.26 195.39 1226.2 193.4 1228.02 191.32C1231.05 187.87 1231.19 187.35 1230.83 180.92C1230.55 175.98 1229.91 173.55 1228.47 171.94C1224.11 167.04 1223.58 167 1167.59 167L1115.11 167L1113.56 169.22C1111.3 172.44 1111.31 193.17 1113.57 195.43C1114.96 196.82 1121.12 197 1166.32 196.99C1197.98 196.99 1218.9 196.6 1221.17 195.97ZM2.36 141.52C1.08 140.58 0.92 134.99 1.21 100.97L1.56 61.5L4.25 53.5C9.77 37.14 21.63 21.56 35.5 12.48C44.21 6.77 57.04 2.25 68.14 0.97C74.27 0.26 103.17 -0.01 152 0.19C234.9 0.53 229.05 0.04 236.84 7.36C239.84 10.19 244.62 17.78 243.82 18.47C243.64 18.62 241.38 19.67 238.78 20.8C233.52 23.09 224.6 30.95 222.39 35.22L220.95 38L145.66 38C62.82 38 64.71 37.87 54.78 44.17C48.96 47.87 44.84 52.47 41.25 59.29L38.5 64.5L38 96.55C37.45 131.99 37.46 131.9 30.7 136.06C22.59 141.02 6.04 144.22 2.36 141.52ZM1220.3 132.93C1222.4 132.35 1225.52 130.61 1227.25 129.07C1230.04 126.58 1230.43 125.55 1230.75 119.88C1231.04 114.73 1230.71 112.86 1229.03 110.19C1225.12 103.96 1225.55 104 1167.07 104C1115.69 104 1114.04 104.06 1113.04 105.93C1112.47 107 1112 112.93 1112 119.11C1112 128.16 1112.32 130.7 1113.65 132.17C1115.22 133.9 1118.16 134 1165.9 133.99C1198.34 133.99 1217.86 133.61 1220.3 132.93ZM219.05 118.25C218.48 116.19 218.03 114.05 218.06 113.5C218.09 112.95 224.05 108.2 231.31 102.95L244.5 93.4L244.78 82.69L245.07 71.98L242.28 70.92C235.85 68.48 231 60.95 231 53.38C231 37.56 250.87 28.96 262.34 39.81C270.68 47.71 270.7 58.75 262.38 66.75C259.95 69.09 257.3 71 256.48 71C254.85 71 254.69 72.75 254.99 87.22C255.16 95.61 255.06 96.04 252.34 98.56C249.08 101.58 221.47 122 220.64 122C220.34 122 219.63 120.31 219.05 118.25ZM255.01 62.33C262.17 58.11 261.54 47.13 253.97 43.99C245.32 40.41 237 48.42 239.99 57.46C241.96 63.43 249.19 65.77 255.01 62.33Z"/>
</svg>
